<svg preserveAspectRatio="none" width="100%" height="100%" overflow="visible" style="display: block;" viewBox="0 0 34.3 23.775" fill="none" xmlns="http://www.w3.org/2000/svg">
<g id="icon/styling">
<path id="Vector" d="M7.55 10.825C9.64869 10.825 11.35 9.12368 11.35 7.02499C11.35 4.92631 9.64869 3.22499 7.55 3.22499C5.45132 3.22499 3.75 4.92631 3.75 7.02499C3.75 9.12368 5.45132 10.825 7.55 10.825Z" stroke="black" stroke-width="1.5" stroke-miterlimit="10" stroke-linecap="round" stroke-linejoin="round"/>
<path id="Vector_2" d="M22.75 12.325L7.05 13.325C3.55 13.325 0.75 10.525 0.75 7.025C0.75 4.025 2.95 1.425 5.75 0.825C6.45 0.725 7.14999 0.725 7.84999 0.825L22.75 2.72499V12.325Z" stroke="black" stroke-width="1.5" stroke-miterlimit="10" stroke-linecap="round" stroke-linejoin="round"/>
<path id="Vector_3" d="M11.75 13.025V19.725C11.75 21.525 10.25 23.025 8.45 23.025C6.65 23.025 5.14999 21.525 5.14999 19.725V13.125" stroke="black" stroke-width="1.5" stroke-miterlimit="10" stroke-linecap="round" stroke-linejoin="round"/>
<path id="Vector_4" d="M22.75 12.425L26.55 13.625V1.625L22.75 2.825V12.425Z" stroke="black" stroke-width="1.5" stroke-miterlimit="10" stroke-linecap="round" stroke-linejoin="round"/>
<g id="Group">
<path id="Vector_5" d="M29.05 7.825H33.55" stroke="black" stroke-width="1.5" stroke-miterlimit="10" stroke-linecap="round" stroke-linejoin="round"/>
<path id="Vector_6" d="M29.05 5.02499L32.85 2.72499" stroke="black" stroke-width="1.5" stroke-miterlimit="10" stroke-linecap="round" stroke-linejoin="round"/>
<path id="Vector_7" d="M32.85 12.825L29.05 10.625" stroke="black" stroke-width="1.5" stroke-miterlimit="10" stroke-linecap="round" stroke-linejoin="round"/>
</g>
</g>
</svg>
