<svg width="29" height="29" viewBox="0 0 29 29" fill="none" xmlns="http://www.w3.org/2000/svg">
<path d="M27.5846 4.24603V13.9783C27.5846 15.6791 26.1673 17.0964 24.4665 17.0964C22.7658 17.0964 21.3484 15.6791 21.3484 13.9783V4.24603H27.5846Z" stroke="black" stroke-width="1.5" stroke-miterlimit="10" stroke-linecap="round" stroke-linejoin="round"/>
<path d="M27.5846 13.9784V27.8681H18.7028V15.3012C18.7028 12.75 19.7421 10.4823 21.4429 8.87598V13.9784C21.4429 15.6792 22.8603 17.0965 24.561 17.0965C26.1673 17.0965 27.5846 15.6792 27.5846 13.9784Z" stroke="black" stroke-width="1.5" stroke-miterlimit="10" stroke-linecap="round" stroke-linejoin="round"/>
<path d="M9.72637 5.2854V15.0177C9.72637 16.7185 8.30906 18.1358 6.60827 18.1358C4.90748 18.1358 3.49014 16.7185 3.49014 15.0177V5.2854H9.72637Z" stroke="black" stroke-width="1.5" stroke-miterlimit="10" stroke-linecap="round" stroke-linejoin="round"/>
<path d="M9.72638 15.0177V27.8681H0.75V16.5295C0.75 13.9783 1.78936 11.7106 3.49015 10.1043V15.0177C3.49015 16.7185 4.90749 18.1358 6.60828 18.1358C8.30907 18.1358 9.72638 16.7185 9.72638 15.0177Z" stroke="black" stroke-width="1.5" stroke-miterlimit="10" stroke-linecap="round" stroke-linejoin="round"/>
<path d="M18.7027 0.75V10.4823C18.7027 12.1831 17.2854 13.6004 15.5847 13.6004C13.8839 13.6004 12.4665 12.1831 12.4665 10.4823V0.75H18.7027Z" stroke="black" stroke-width="1.5" stroke-miterlimit="10" stroke-linecap="round" stroke-linejoin="round"/>
<path d="M18.7028 10.3878V27.8681H9.72638V11.7106C9.72638 9.15941 10.7657 6.8917 12.4665 5.2854V10.3878C12.4665 12.0885 13.8839 13.5059 15.5847 13.5059C17.2854 13.5059 18.7028 12.183 18.7028 10.3878Z" stroke="black" stroke-width="1.5" stroke-miterlimit="10" stroke-linecap="round" stroke-linejoin="round"/>
</svg>
